<svg width="130" height="74" viewBox="0 0 130 74" fill="none" xmlns="http://www.w3.org/2000/svg">
<g clip-path="url(#clip0_555_318)">
<mask id="mask0_555_318" style="mask-type:luminance" maskUnits="userSpaceOnUse" x="-1" y="-1" width="131" height="75">
<path d="M-0.0211792 73.7429H129.854V-0.181765H-0.0211792V73.7429Z" fill="white"/>
</mask>
<g mask="url(#mask0_555_318)">
<path d="M2.11227 60.8087H127.854V66.213H2.11227V60.8087Z" fill="#999999"/>
<path d="M122.85 73.7975C126.784 73.5589 129.866 70.2866 129.866 66.3317V7.35419C129.866 3.23414 126.516 -0.119446 122.398 -0.119446L7.44598 -0.128235C3.32839 -0.128235 -0.0227661 3.22514 -0.0227661 7.3454V66.3493C-0.0226297 70.2867 3.06038 73.5588 6.99384 73.7975L122.788 73.8015L122.85 73.7975ZM77.7809 40.2741C77.6509 40.2741 71.8552 40.2145 65.9626 40.2145C59.8572 40.2145 53.6494 40.2741 53.5143 40.2741C53.321 40.2741 53.2556 40.1432 53.2556 39.9499V39.3366C53.2556 39.1367 53.3209 39.0739 53.7048 39.0739H54.9382C55.2635 39.0739 55.7487 38.8179 55.7487 37.9099V27.7653C55.7487 25.4972 55.6845 22.7125 55.6179 21.8698C55.5497 20.7702 55.0036 20.2514 53.9665 19.9274L53.321 19.737C53.1223 19.6663 53.1218 19.6058 53.1218 19.4684V19.0817C53.122 19.0163 53.1878 18.8897 53.3835 18.8259C54.6809 18.4365 57.2021 17.594 58.2409 16.946C58.6328 16.8153 58.8264 16.7536 58.9557 16.7536C59.1464 16.7536 59.2761 16.882 59.2761 17.3366C59.2121 19.0819 59.1462 25.8215 59.1462 27.6022V32.2722C59.1462 33.7616 59.1463 37.0635 59.2116 38.0329C59.2756 38.6194 59.3426 39.0738 60.0583 39.0739C60.0583 39.0739 60.5213 39.1218 61.7106 39.1218C62.8987 39.1218 63.3854 39.0739 63.3854 39.0739C63.7055 39.0739 64.195 38.8179 64.195 37.9099V27.7653C64.195 25.4972 64.1272 22.7125 64.0632 21.8698C63.999 20.77 63.4477 20.2514 62.4118 19.9274L61.7653 19.737C61.572 19.6663 61.572 19.6058 61.572 19.4684V19.0817C61.5722 19.0163 61.6298 18.8897 61.8307 18.8259C63.1242 18.4365 65.6501 17.594 66.6901 16.946C67.0779 16.8154 67.2687 16.7536 67.402 16.7536C67.5939 16.7538 67.7253 16.8822 67.7253 17.3366C67.6586 19.0819 67.5935 25.8215 67.5934 27.6022V32.2722C67.5934 33.7616 67.5935 37.0635 67.6589 38.0329C67.7255 38.6194 67.7885 39.0738 68.4987 39.0739C68.4987 39.0739 68.8673 39.1218 70.2487 39.1218C71.5894 39.1218 71.8415 39.076 71.8522 39.0739C72.1748 39.0739 72.3364 38.9488 72.3698 38.4265C72.4045 37.4531 72.4362 36.4164 72.4362 35.5124V30.9411C72.4362 29.9693 72.2402 29.3243 70.7497 28.9323C70.4565 28.8683 70.4245 28.7676 70.4245 28.6423V28.2839C70.4245 28.156 70.49 28.0904 70.654 28.0251C71.108 27.8315 74.3114 26.6964 74.8649 26.4724C75.1903 26.3417 75.4493 26.2741 75.6413 26.2741C75.8356 26.2743 75.9345 26.404 75.904 26.6677C75.836 27.1837 75.8356 29.2575 75.8356 31.947V35.4401C75.8356 36.6708 75.836 37.8417 75.904 38.2311C75.9653 38.8176 76.0955 39.0737 76.4206 39.0739H77.7175C77.977 39.074 78.0426 39.1368 78.0427 39.2966V39.9499C78.0427 40.1432 77.977 40.2741 77.7809 40.2741ZM27.3522 40.7487C23.2028 40.7487 20.8744 39.5162 18.861 37.7028C16.4653 35.5627 15.3641 31.8058 15.364 28.9538C15.364 25.7817 16.3986 22.7373 18.6667 20.2731C20.4174 18.3944 23.2028 16.8396 27.0895 16.8395C30.0709 16.8395 32.4683 17.7515 33.6325 18.3942C34.0858 18.6502 34.2186 18.6501 34.28 18.3942L34.5436 17.5563C34.6023 17.3566 34.6718 17.3571 35.0583 17.3571C35.4503 17.3571 35.5134 17.4222 35.5134 17.8796C35.5135 18.4595 36.1601 23.6388 36.2907 24.6081C36.3239 24.8038 36.2904 24.9039 36.1599 24.9372L35.5446 25.1315C35.3861 25.1939 35.2867 25.0646 35.1921 24.8034C34.8027 23.638 34.0207 22.0181 32.6647 20.5954C31.2393 19.2354 29.5552 18.2009 27.0231 18.2009C21.8442 18.2009 19.7038 22.8691 19.7038 27.528C19.7038 29.5374 20.2882 33.3587 22.6882 35.9509C24.8216 38.2203 26.7018 38.4821 28.2565 38.4821C31.602 38.4821 34.2793 36.9032 35.7194 35.0778C35.7527 35.0366 35.8658 35.002 35.902 35.0417C35.9274 35.0737 36.3037 35.4071 36.5143 35.6071C36.6103 35.6938 36.5962 35.8594 36.5602 35.9128C34.5948 38.4636 31.6165 40.7487 27.3522 40.7487ZM73.7409 24.113C72.6462 24.113 71.7663 23.2287 71.7663 22.1393C71.7664 21.0487 72.6462 20.1608 73.7409 20.1608C74.8328 20.1609 75.7164 21.0488 75.7165 22.1393C75.7165 23.2287 74.8329 24.1129 73.7409 24.113ZM100.821 40.2966C100.594 40.2965 99.168 40.1979 96.8005 40.1979C94.5379 40.1979 93.2736 40.2966 93.0163 40.2966C92.8512 40.2965 92.7878 40.2299 92.7878 40.07V39.3591C92.7878 39.1594 92.8513 39.0965 93.0749 39.0964H94.2145C94.7316 39.0962 95.0515 38.8403 95.0515 38.2204V31.8737C95.0515 30.3803 94.7954 29.8651 93.822 29.3464L93.2409 29.0212C93.0502 28.9545 92.985 28.8932 92.985 28.7585V28.5651C92.9851 28.4386 93.0503 28.375 93.2409 28.2751L97.1599 26.4265C97.3556 26.3638 97.4836 26.2976 97.6794 26.2975C97.8739 26.2975 97.9354 26.4943 97.9714 26.6901L98.2624 29.0212H98.3932C99.4933 27.2065 100.855 26.1022 102.279 26.1022C103.316 26.1024 103.963 26.8213 103.963 27.7253C103.963 28.6346 103.056 29.4741 102.214 29.4743C101.759 29.4743 101.37 29.3468 101.109 29.2175C100.854 29.0215 100.53 28.9548 100.205 28.9548C99.8181 28.9549 99.2369 29.2177 98.8464 29.8962C98.5891 30.3494 98.4559 31.057 98.4557 31.485V37.735C98.4557 38.7711 98.7172 39.0964 99.364 39.0964H100.794C100.984 39.0965 101.049 39.1595 101.049 39.3181V40.07C101.049 40.23 100.984 40.2966 100.821 40.2966ZM109.196 40.6071C107.475 40.607 106.054 40.057 105.692 39.7663C105.565 39.633 105.471 39.5388 105.435 39.4108L104.919 36.1403C104.887 36.0097 104.919 35.9096 105.012 35.8776L105.63 35.6872C105.76 35.6525 105.856 35.6523 105.922 35.7829L106.988 37.5964C107.575 38.5724 108.19 39.3405 109.778 39.3405C111.042 39.3404 112.077 38.5722 112.077 37.3669C112.077 36.071 111.234 35.4845 108.968 34.8405C106.766 34.1952 105.013 33.0923 105.012 30.7897C105.012 29.3684 105.532 28.2001 106.667 27.3893C107.799 26.6147 108.708 26.3181 110.035 26.3181C111.622 26.3181 112.595 26.7115 113.179 27.0329C113.663 27.2889 113.76 27.423 113.792 27.611L114.218 29.82C114.246 29.9493 114.246 30.1098 114.184 30.1765L113.566 30.4665C113.471 30.4985 113.372 30.4667 113.308 30.3347L111.75 28.5866C111.362 28.1666 110.778 27.5876 109.713 27.5876C108.514 27.5876 107.475 28.2976 107.475 29.4323C107.475 30.7601 108.45 31.1531 110.391 31.6638C111.886 32.0504 112.794 32.443 113.634 33.3483C114.348 34.0616 114.603 34.8403 114.603 35.944C114.603 38.6629 112.399 40.6071 109.196 40.6071ZM45.1686 40.6491C43.1233 40.6491 41.3747 40.0623 39.9186 38.3171C38.4932 36.6303 38.1677 35.2711 38.1677 33.2936C38.1677 31.7389 38.9496 29.4734 40.8884 27.9186C42.4764 26.6174 44.166 26.36 45.486 26.36C47.6578 26.3601 49.2789 27.2079 50.3815 28.2731C51.9016 29.7958 52.6197 31.4827 52.6198 33.3893C52.6198 35.2095 51.8365 36.9583 50.6071 38.3171C49.2791 39.8075 47.3351 40.649 45.1686 40.6491ZM85.4938 40.654C83.419 40.654 81.9609 40.2017 80.8288 38.9069C79.3384 37.187 79.0114 35.5669 79.0114 33.5602C79.0114 31.7828 79.2121 30.5771 80.6042 28.7624C81.9615 27.0159 83.4188 26.364 86.2399 26.364C89.932 26.364 91.1334 30.2212 91.1335 31.5534C91.1335 32.0374 90.8067 32.072 90.2214 32.072H82.3845V33.0739C82.3846 36.3792 84.7481 38.3219 86.5934 38.322C88.6027 38.322 89.8293 37.4753 90.5134 36.4421C90.6467 36.2154 90.7749 36.2156 90.9069 36.2809L91.3874 36.57C91.5499 36.666 91.6151 36.7979 91.3874 37.2175C90.7074 38.4508 89.0565 40.6539 85.4938 40.654ZM86.4001 30.903C87.0788 30.903 87.4714 30.708 87.4714 30.4479C87.4713 29.4771 87.1452 27.5651 85.4626 27.5651C83.8733 27.5653 82.8985 28.7337 82.4811 30.903H86.4001ZM45.4225 39.2897C47.5613 39.2897 48.6647 36.5992 48.6647 33.2936C48.6647 29.7294 46.7841 27.652 45.2907 27.652C44.4521 27.6521 43.8052 27.9191 43.2546 28.5378C42.2482 29.6697 41.8601 31.027 41.86 33.3893C41.86 35.2708 41.9905 36.5019 42.8679 37.8913C43.4158 38.7699 44.1308 39.2896 45.4225 39.2897ZM2.112 55.3415H127.853V60.8405H2.112V55.3415ZM7.17841 71.7429C4.35069 71.5704 2.10526 69.2289 2.10516 66.3571V66.3386H127.846V66.3571C127.846 69.2291 125.6 71.5707 122.773 71.7429H7.17841Z" fill="#999999"/>
</g>
</g>
<defs>
<clipPath id="clip0_555_318">
<rect width="129.865" height="73.9276" fill="white"/>
</clipPath>
</defs>
</svg>
