<svg width="2149" height="399" viewBox="0 0 2149 399" fill="none" xmlns="http://www.w3.org/2000/svg">
<g clip-path="url(#clip0_543_167)">
<path d="M1478.11 155.49L1599.07 155.454C1616.74 155.449 1642.05 153.94 1659.02 157.447C1673.26 160.39 1687.12 177.373 1688.19 192.136C1689.66 212.475 1688.8 234.837 1688.79 255.862L1688.84 398.168H1622.16V365.657C1614.04 376.043 1605.88 387.252 1597.93 397.836H1517.5C1499.41 398.027 1476.97 400.568 1462.28 388.507C1454.7 382.284 1447.36 370.069 1447.22 359.605C1446.9 334.265 1445.24 304.466 1448.25 279.421C1449.49 273.557 1453.12 267.462 1456.72 262.926C1472.68 242.816 1497.36 248.72 1519.9 247.756C1552.75 246.35 1589.46 250.026 1622.16 246.963V220.836H1448.03C1458.07 200.953 1468.68 176.065 1478.11 155.49ZM1512 332.49H1622.16V299.836H1512V332.49Z" fill="#999999"/>
<path d="M952.719 155.49H1124.58L1155.74 221H979.836V332.164H1093.83V299.836H1061.83V250.75C1061.88 249.634 1062.23 249.348 1062.93 248.514L1159.84 248.49L1159.91 320.643C1159.93 339.445 1162.76 364.535 1151.54 380.414C1136.84 401.216 1113.88 397.887 1091.47 397.904L1035.34 397.923L980.289 397.897C962.175 397.88 944.435 400.522 929.374 388.944C920.605 382.125 914.877 372.125 913.431 361.111C912.602 354.63 912.953 340.055 912.949 333.02L912.975 280.499L912.954 226.166C912.962 193.574 910.667 160.628 952.719 155.49Z" fill="#999999"/>
<path d="M1186.16 156H1251V332.164H1354.16V156H1419V249.5V397.836H1354.83V369.324L1335.86 397.836L1288.83 397.917C1281.49 397.928 1269.23 397.421 1262.57 397.952C1175.53 404.888 1186.09 365.521 1186.1 296.723L1186.16 156Z" fill="#999999"/>
<path d="M727.49 155.832H792V191.276L808.249 156H899V220.836C875.896 220.941 828.574 216.213 810.442 228.269C799.866 235.301 794.711 245.621 792.233 257.762C791.271 268.663 791.962 293.108 791.963 304.927L792 398H727.49V155.832Z" fill="#999999"/>
<path d="M1714.49 155.832H1779V191.269L1795.31 156H1886V220.836C1846.47 221.018 1789.23 208.233 1779.24 257.761C1778.38 264.534 1778.96 293.789 1778.96 302.212L1779 398H1714.49V155.832Z" fill="#999999"/>
<path d="M2084.16 66H2149V397.836H2084.16V363.156L2065.81 397.836L1984.24 397.923C1941.03 398.012 1901.33 403.761 1901.15 346.281L1901.11 243.547C1901.12 225.542 1900.27 204.289 1902.76 186.622C1904.51 179.364 1908.51 173.387 1913.54 168.011C1930 150.435 1961.72 155.037 1984.59 155.057L2064.33 155.164L2084.16 190.308V66ZM1966.17 331.49H2084.83V220.836H1966.17V331.49Z" fill="#999999"/>
<path d="M514.855 399C496.601 360.916 476.233 323.645 457.533 285.744C454.381 276.429 436.757 249.695 436.001 241.97C432.713 208.384 429.244 156.563 476.936 155.768C537.469 154.759 599.063 155.427 659.686 155.827C662.875 155.848 667.326 156.821 670.343 157.894C681.195 161.745 690.04 169.803 694.884 180.249C699.834 190.723 698.922 206.727 698.873 218.319C698.683 264.101 699.387 309.937 698.634 355.706C698.218 380.96 682.841 394.21 659.414 399H514.855ZM498.836 332.164H633.832V221.51H498.836V332.164Z" fill="#999999"/>
<path d="M0 0H125.425C138.623 3.0301 149.429 7.88241 156.372 20.0373C164.187 33.7197 171.512 49.2994 178.597 63.52L220.051 146.788L345.211 397.836H265.305L104.663 79.8359H0V0Z" fill="#999999"/>
<path d="M171.232 0H268.409C271.145 0.5751 273.844 1.31122 276.493 2.20452C299.728 10.0095 308.453 37.8368 318.743 58.5037L357.133 135.629L487.921 397.836H408.05C391.312 362.976 371.868 326.223 354.34 291.54L247.334 79.8359H211.163L171.232 0Z" fill="#999999"/>
<path d="M0 102.164H80.1678V397.836H0V102.164Z" fill="#999999"/>
</g>
<defs>
<clipPath id="clip0_543_167">
<rect width="2149" height="399" fill="#999999"/>
</clipPath>
</defs>
</svg>
