<svg width="743" height="100" viewBox="0 0 743 100" fill="none" xmlns="http://www.w3.org/2000/svg">
<g clip-path="url(#clip0_566_582)">
<path d="M99.9825 0V100H44.9921V75H74.9869V25H24.9956V100H0V0H99.9825Z" fill="#0A1628"/>
<path d="M44.9921 64.58L32.1643 51.75L37.8233 46.095L44.9921 53.265L62.1591 36.095L67.8181 41.75L44.9921 64.58Z" fill="#0A1628"/>
<path d="M151.883 98.5349V3.75488H185.717C193.051 3.75488 199.135 5.09988 203.969 7.79488C208.803 10.4899 212.428 14.1549 214.847 18.7999C217.262 23.4449 218.472 28.6699 218.472 34.4799C218.472 40.2899 217.262 45.5149 214.847 50.1599C212.433 54.8049 208.793 58.4699 203.939 61.1649C199.085 63.8599 192.966 65.2049 185.593 65.2049H162.442V53.1199H184.258C188.962 53.1199 192.771 52.3149 195.676 50.7049C198.58 49.0949 200.7 46.8799 202.035 44.0549C203.369 41.2349 204.039 38.0449 204.039 34.4799C204.039 30.9149 203.369 27.6849 202.035 24.9049C200.7 22.1299 198.57 19.9549 195.641 18.3849C192.716 16.8149 188.897 16.0299 184.193 16.0299H166.191V98.5349H151.878H151.883Z" fill="#0A1628"/>
<path d="M228.585 98.5348V27.4148H241.878V38.7998H242.643C243.957 34.9848 246.257 31.9598 249.541 29.7348C252.826 27.5098 256.55 26.3948 260.704 26.3948C261.554 26.3948 262.559 26.4248 263.724 26.4898C264.889 26.5548 265.834 26.6298 266.553 26.7148V39.9448C266.004 39.7748 265.014 39.6048 263.594 39.4348C262.174 39.2648 260.744 39.1798 259.3 39.1798C256.035 39.1798 253.121 39.8698 250.556 41.2448C247.992 42.6248 245.977 44.5098 244.512 46.9048C243.048 49.2998 242.318 52.0698 242.318 55.2048V98.5248H228.58L228.585 98.5348Z" fill="#0A1628"/>
<path d="M301.217 99.9999C294.263 99.9999 288.244 98.4949 283.155 95.4849C278.066 92.4749 274.157 88.2249 271.422 82.7299C268.688 77.2399 267.318 70.8249 267.318 63.4849C267.318 56.1449 268.663 49.7649 271.357 44.2099C274.052 38.6549 277.846 34.3199 282.74 31.1999C287.635 28.0799 293.394 26.5249 300.007 26.5249C304.037 26.5249 307.936 27.1849 311.71 28.4949C315.485 29.8099 318.874 31.8899 321.889 34.7299C324.898 37.5699 327.283 41.2599 329.042 45.7999C330.802 50.3399 331.682 55.8099 331.682 62.2099V67.1699H275.142V56.7999H324.558L318.134 60.2349C318.134 55.8699 317.454 52.0099 316.1 48.6549C314.74 45.3049 312.72 42.6849 310.026 40.7999C307.331 38.9149 303.992 37.9699 300.007 37.9699C296.023 37.9699 292.619 38.9249 289.799 40.8349C286.98 42.7449 284.825 45.2649 283.345 48.4049C281.861 51.5449 281.121 54.9799 281.121 58.7099V65.7699C281.121 70.6449 281.971 74.7799 283.665 78.1749C285.36 81.5699 287.725 84.1549 290.759 85.9349C293.788 87.7149 297.318 88.6049 301.347 88.6049C303.977 88.6049 306.361 88.2249 308.501 87.4599C310.641 86.6949 312.495 85.5499 314.065 84.0249C315.635 82.4999 316.819 80.6099 317.624 78.3649L330.727 80.8449C329.667 84.6599 327.803 88.0099 325.128 90.8949C322.458 93.7799 319.094 96.0149 315.045 97.6049C310.995 99.1949 306.386 99.9899 301.212 99.9899L301.217 99.9999Z" fill="#0A1628"/>
<path d="M341.35 98.5349V27.4149H354.518V39.1199H355.473C356.958 35.1749 359.382 32.0899 362.757 29.8649C366.126 27.6399 370.145 26.5249 374.809 26.5249C379.474 26.5249 383.533 27.6399 386.732 29.8649C389.932 32.0899 392.316 35.1749 393.886 39.1199H394.651C396.346 35.2599 399.04 32.1949 402.73 29.9299C406.419 27.6599 410.808 26.5249 415.897 26.5249C422.341 26.5249 427.62 28.5499 431.735 32.5999C435.849 36.6499 437.903 42.7449 437.903 50.8899V98.5349H424.036V52.1599C424.036 47.3249 422.721 43.8349 420.092 41.6949C417.462 39.5549 414.323 38.4849 410.678 38.4849C406.184 38.4849 402.695 39.8749 400.215 42.6499C397.735 45.4299 396.496 48.9399 396.496 53.1799V98.5349H382.628V51.2699C382.628 47.4099 381.438 44.3149 379.069 41.9799C376.694 39.6499 373.58 38.4799 369.72 38.4799C367.091 38.4799 364.666 39.1699 362.437 40.5449C360.212 41.9249 358.427 43.8299 357.093 46.2699C355.758 48.7099 355.088 51.5199 355.088 54.6999V98.5299H341.35V98.5349Z" fill="#0A1628"/>
<path d="M458.06 16.4749C455.645 16.4749 453.585 15.6699 451.891 14.0599C450.196 12.4499 449.346 10.5199 449.346 8.26988C449.346 6.01988 450.196 4.02988 451.891 2.41988C453.585 0.809883 455.645 0.00488281 458.06 0.00488281C460.474 0.00488281 462.479 0.809883 464.199 2.41988C465.918 4.02988 466.773 5.97988 466.773 8.26988C466.773 10.5599 465.913 12.4449 464.199 14.0599C462.479 15.6699 460.434 16.4749 458.06 16.4749ZM451.131 98.5349V27.4149H464.868V98.5349H451.131Z" fill="#0A1628"/>
<path d="M531.267 44.8449L518.739 47.0099C517.934 44.6349 516.439 42.4499 514.255 40.4599C512.07 38.4649 508.816 37.4699 504.492 37.4699C500.592 37.4699 497.338 38.3499 494.728 40.1099C492.119 41.8699 490.819 44.1099 490.819 46.8199C490.819 49.1949 491.699 51.1249 493.459 52.6099C495.218 54.0949 498.028 55.2799 501.887 56.1699L513.27 58.7149C519.759 60.1999 524.613 62.5299 527.832 65.7099C531.057 68.8899 532.667 72.9599 532.667 77.9249C532.667 82.2099 531.437 86.0149 528.977 89.3449C526.518 92.6749 523.103 95.2849 518.739 97.1699C514.37 99.0549 509.326 99.9999 503.602 99.9999C495.628 99.9999 489.144 98.2799 484.14 94.8449C479.136 91.4099 476.062 86.5749 474.917 80.3399L488.209 78.3049C489.059 81.7849 490.784 84.4099 493.394 86.1949C496.003 87.9749 499.382 88.8649 503.537 88.8649C508.031 88.8649 511.645 87.9099 514.38 85.9999C517.114 84.0899 518.484 81.7799 518.484 79.0649C518.484 74.5699 515.135 71.5399 508.436 69.9699L496.413 67.2999C489.754 65.7749 484.85 63.3649 481.691 60.0799C478.531 56.7949 476.951 52.6499 476.951 47.6449C476.951 43.4449 478.126 39.7549 480.481 36.5749C482.835 33.3949 486.08 30.9249 490.214 29.1649C494.348 27.4049 499.063 26.5249 504.367 26.5249C512.085 26.5249 518.134 28.1999 522.523 31.5499C526.913 34.8999 529.827 39.3349 531.267 44.8449Z" fill="#0A1628"/>
<path d="M572.93 99.9999C565.976 99.9999 559.957 98.4949 554.868 95.4849C549.779 92.4749 545.87 88.2249 543.135 82.7299C540.401 77.2399 539.031 70.8249 539.031 63.4849C539.031 56.1449 540.376 49.7649 543.07 44.2099C545.765 38.6549 549.559 34.3199 554.453 31.1999C559.347 28.0799 565.106 26.5249 571.72 26.5249C575.749 26.5249 579.649 27.1849 583.423 28.4949C587.197 29.8099 590.587 31.8899 593.601 34.7299C596.611 37.5699 598.995 41.2599 600.755 45.7999C602.515 50.3399 603.394 55.8099 603.394 62.2099V67.1699H546.854V56.7999H596.271L589.847 60.2349C589.847 55.8699 589.167 52.0099 587.812 48.6549C586.452 45.3049 584.433 42.6849 581.738 40.7999C579.044 38.9149 575.704 37.9699 571.72 37.9699C567.736 37.9699 564.331 38.9249 561.512 40.8349C558.692 42.7449 556.538 45.2649 555.058 48.4049C553.573 51.5449 552.833 54.9799 552.833 58.7099V65.7699C552.833 70.6449 553.683 74.7799 555.378 78.1749C557.073 81.5699 559.437 84.1549 562.472 85.9349C565.501 87.7149 569.03 88.6049 573.06 88.6049C575.689 88.6049 578.074 88.2249 580.214 87.4599C582.353 86.6949 584.208 85.5499 585.778 84.0249C587.347 82.4999 588.532 80.6099 589.337 78.3649L602.44 80.8449C601.38 84.6599 599.515 88.0099 596.841 90.8949C594.171 93.7799 590.807 96.0149 586.757 97.6049C582.708 99.1949 578.099 99.9899 572.925 99.9899L572.93 99.9999Z" fill="#0A1628"/>
<path d="M651.156 98.5349H635.954L670.048 3.75488H686.585L720.614 98.5399H705.476L678.636 20.9949H677.871L651.156 98.5399V98.5349ZM653.701 61.4499H702.867V73.4099H653.701V61.4499Z" fill="#0A1628"/>
<path d="M743 3.75488V98.5399H728.688V3.75488H743Z" fill="#0A1628"/>
</g>
<defs>
<clipPath id="clip0_566_582">
<rect width="743" height="100" fill="white"/>
</clipPath>
</defs>
</svg>
