<svg version="1.2" xmlns="http://www.w3.org/2000/svg" viewBox="0 0 1550 519" width="1550" height="519"><style>.a{fill:#999999}</style><path fill-rule="evenodd" class="a" d="m1129.8 248v51.9h-48.1v-16.4c0-4.7-0.2-9.4 0.1-14.1 0-1.1 0.9-2.9 1.8-3.3 15.1-6.2 30.2-12.2 45.3-18.2 0.2-0.1 0.5 0 0.9 0.1zm-740.9 0v51.9h-48.2v-16.4c0-4.7-0.1-9.4 0.1-14.1 0-1.1 0.9-2.9 1.9-3.3 15-6.2 30.2-12.2 45.3-18.2 0.2-0.1 0.5 0 0.9 0.1zm-387.9 2.4c0 0 41.3-1.1 73.7-1.1 35.1 0 60.7 7.4 77.5 21.6 15.7 12.8 25.8 33.5 25.8 58.2 0 25-7.8 45.5-22.5 59.7-19.3 19.2-49.1 28.3-83.2 28.3-9 0-23.6 0.1-23.6 0.1v97.5h-47.7zm47.7 129c0 0 13.8 0.2 23.6 0.2 36 0 57.9-17.9 57.9-48.8 0-29-20.3-44.6-53.6-44.6-13.2 0-27.9-0.5-27.9-0.5zm899.8-35.2l40.2-16.4-0.1 35.5h1.4c9.3-26.3 31.5-39.7 52-39.7 4.7 0 7.5 0.2 11.3 1v44.5c-4.1-0.8-8.3-1.3-14.1-1.3-22.9 0-38.8 14.3-43.1 35.7-0.8 4.2-1.2 9.2-1.2 14.3v96.9h-48.1l-0.9-166.6c0-1.7 1-3.3 2.6-3.9zm-744.8 0l40.2-16.4-0.1 35.5h1.4c9.4-26.3 31.5-39.7 52.1-39.7 4.6 0 7.4 0.2 11.2 1v44.5c-4.1-0.8-8.3-1.3-14.1-1.3-22.9 0-38.8 14.3-43.1 35.7-0.8 4.2-1.2 9.2-1.2 14.3v96.9h-48.1l-0.9-166.6c0-1.7 1-3.3 2.6-3.9zm185.5-19.7v190.2h-48.1v-190.2zm45.7 17l42.3-17-0.2 27.9h1.2c9.2-14.7 26.5-32.2 58.5-32.2 25.2 0 44.6 14 52.8 35.1h0.8c6.6-10.4 14.6-18.4 23.2-23.9 10.9-7.3 22.9-11.2 38.7-11.2 31.4 0 63.5 21.5 63.5 82.5v112h-46.9v-105.2c0-31.7-11-50.3-33.9-50.3-16.5 0-28.6 11.6-33.5 25.3-1.5 4.6-2.4 10.7-2.4 16v114.2h-46.9v-110c0-26.8-10.8-45.5-32.9-45.5-18 0-30 14.1-34.6 27.1-1.7 4.9-2.4 10.6-2.4 15.9v112.5h-46.9z"/><path fill-rule="evenodd" class="a" d="m860.5 514.7l0.5-21.2h-1.2c-11.5 15-31.4 25.5-56 25.5-38.6 0-60-27.6-60-56.6 0-48 42.8-72.3 112.8-72v-3.2c0-12.5-4.9-33.3-38.6-33.1-18.6 0-38.1 6-51.1 14.2l-9.5-31.2c14.3-8.8 38.9-16.9 68.9-16.9 61 0 78.4 38.4 78.4 80.2v114.3m-46.8-93.2c-33.9-0.4-66.4 6.7-66.4 35.7 0 18.6 12.2 27.4 27.4 27.4 19.2 0 33.1-12.4 37.7-26.3 1-3.4 1.3-7.2 1.3-10.5zm272.2-97v190.1h-48.2v-190.1zm45.7 145.9c10.6 6.6 31.3 13.9 48.5 13.9 21.2 0 30.7-8.9 30.7-21.3 0-12.9-7.9-19.5-31.3-27.8-37.2-12.7-52.7-33-52.5-55.5 0-33.5 27.7-59.5 72.1-59.5 21 0 39.3 5.2 50.5 11.3l-9.6 33.8c-8-4.6-23.4-11-40.2-11-17.1 0-26.6 8.5-26.6 20.2 0 12.1 9.2 17.9 33.2 26.6 34.6 12.3 50.6 29.9 50.7 57.9 0 34.7-27 59.7-77.2 59.7-23 0-44-5.5-58-13.3zm298.6-353.3l-20.7 134.9-9.2 59.4c-0.9 6-5.8 9.3-10.9 9.3-3.9 0-7.8-2-9.8-6.4l-21.8-47.7-21.8-47.6c-0.8-1.8-2.5-3.1-4.4-3.5l-51-9.9-46.3-8.9c-10.8-2.1-12.2-16.9-2-21l48.3-18.9 133.7-52.4c1.5-0.6 2.9-0.8 4.3-0.8 6.9 0 12.8 6.1 11.6 13.5zm75.2-46.5v139.5c0 8.7-5.8 16.4-14.2 18.8l-68.6 19.4-0.8 0.2 19.9-129.6c1-6.8-0.9-13.6-5.3-18.8-4.5-5.2-11-8.2-17.8-8.2-2.9 0-5.8 0.6-8.5 1.7l-129.5 50.7v-123.9c0-12.8 12.2-22.1 24.5-18.8l185.9 50.2c8.5 2.3 14.4 10 14.4 18.8zm-178.8 155.8l19.8 43.4-0.8 0.3-40.3 11.4c-12.4 3.5-24.8-5.9-24.8-18.8v-45.2z"/></svg>