<svg xmlns="http://www.w3.org/2000/svg" width="180" height="40" viewBox="0 0 180 40" fill="none"><g clip-path="url(#clip0_952_1867)"><path d="M70.554 30.7038L68.5254 28.7329C66.6888 30.2719 64.3037 31.1358 61.5078 31.1358C55.011 31.1358 50.5151 26.4911 50.5151 19.9299C50.5151 13.3687 55.011 8.93945 61.5078 8.93945C68.0046 8.93945 72.3361 13.5031 72.3361 19.9299C72.3361 22.6303 71.5955 25.0065 70.2797 26.8697L74.1993 30.7038H70.5529H70.554ZM66.4689 26.7076L62.1452 22.4982H65.8016L68.0868 24.7356C68.8818 23.3587 69.3204 21.6843 69.3204 19.7944C69.3204 15.0154 66.168 11.6121 61.5078 11.6121C56.8476 11.6121 53.5309 15.0143 53.5309 19.7944C53.5309 24.8711 56.7654 28.462 61.5078 28.462C63.4543 28.462 65.1543 27.8135 66.4701 26.7065L66.4689 26.7076Z" fill="#999999"></path><path d="M87.7558 30.7042H84.9866V28.3014C83.9728 30.0025 82.3006 31.1373 79.9422 31.1373C76.4878 31.1373 74.7334 29.0575 74.7334 25.0347V16.6636H77.5293V24.9536C77.5293 27.3031 78.7085 28.7877 80.7638 28.7877C83.2855 28.7877 84.9855 26.6003 84.9855 23.6034V16.6636H87.7547V30.7053L87.7558 30.7042Z" fill="#999999"></path><path d="M89.8789 26.9777C89.8789 24.4938 92.0441 22.9815 96.2391 22.5218L99.6657 22.1443V21.3337C99.6935 19.606 98.6786 18.5789 96.4034 18.5789C94.1283 18.5789 93.0046 19.6593 93.0046 21.4148H90.373C90.373 18.147 92.5938 16.2305 96.459 16.2305C100.324 16.2305 102.463 18.1203 102.463 21.3337V27.1932C102.463 28.3546 102.683 28.7599 103.806 28.6511L103.752 30.5953C101.148 31.3249 99.9966 30.2711 99.8323 28.057C99.0372 30.0013 97.2829 31.135 94.7057 31.135C91.4434 31.135 89.8811 29.1097 89.8811 26.9766L89.8789 26.9777ZM99.6113 24.304L97.0341 24.5738C94.1283 24.898 92.6482 25.5998 92.6482 26.9233C92.6482 27.8949 93.3333 28.9753 95.3075 28.9753C97.6926 28.9753 99.5291 26.9233 99.6113 24.304Z" fill="#999999"></path><path d="M104.875 23.6287C104.875 19.3083 107.506 16.2303 111.235 16.2303C113.318 16.2303 114.963 17.2297 115.95 18.8497V9.37158H118.746V30.704H115.95V28.5166C114.963 30.1633 113.319 31.1626 111.235 31.136C107.506 31.136 104.875 28.0303 104.875 23.6287ZM116.059 23.6565C116.059 20.6863 114.305 18.5799 111.838 18.5799C109.37 18.5799 107.644 20.6863 107.644 23.6565C107.644 26.6267 109.37 28.7875 111.838 28.7875C114.305 28.7875 116.059 26.6545 116.059 23.6565Z" fill="#999999"></path><path d="M121.55 9.37158H129.771C134.514 9.37158 136.981 11.6934 136.981 15.5819C136.981 18.0391 135.693 19.9834 133.582 20.7129C135.282 21.1448 136.131 22.1442 136.433 24.2772C136.9 27.3018 136.543 28.8142 137.283 30.4875V30.704H134.349C133.774 29.4349 133.856 27.3829 133.582 25.2499C133.198 22.3063 132.568 21.7933 129.36 21.7933H124.401V30.704H121.55V9.37158ZM129.36 19.255C132.568 19.255 133.993 17.9048 133.993 15.6641C133.993 13.4233 132.513 12.0454 129.223 12.0454H124.401V19.255H129.36Z" fill="#999999"></path><path d="M138.502 23.6566C138.502 19.3095 141.518 16.2305 145.739 16.2305C149.221 16.2305 152.154 18.7954 152.154 23.4679V24.5483H141.38C141.572 27.1132 143.107 28.8687 145.739 28.8687C147.658 28.8687 148.947 27.7617 149.221 26.628H152.016C151.578 29.1119 149.111 31.1372 145.738 31.1372C141.517 31.1372 138.501 28.0315 138.501 23.6577L138.502 23.6566ZM149.358 22.4952C149.248 20.2 147.768 18.58 145.657 18.58C143.218 18.58 141.738 20.1467 141.381 22.4952H149.358Z" fill="#999999"></path><path d="M153.854 26.9777C153.854 24.4938 156.019 22.9815 160.214 22.5218L163.641 22.1443V21.3337C163.669 19.606 162.654 18.5789 160.379 18.5789C158.103 18.5789 156.98 19.6593 156.98 21.4148H154.348C154.348 18.147 156.569 16.2305 160.434 16.2305C164.299 16.2305 166.438 18.1203 166.438 21.3337V27.1932C166.438 28.3546 166.658 28.7599 167.781 28.6511L167.727 30.5953C165.123 31.3249 163.972 30.2711 163.807 28.057C163.012 30.0013 161.258 31.135 158.681 31.135C155.419 31.135 153.856 29.1097 153.856 26.9766L153.854 26.9777ZM163.585 24.304L161.008 24.5738C158.102 24.898 156.622 25.5998 156.622 26.9233C156.622 27.8949 157.307 28.9753 159.281 28.9753C161.667 28.9753 163.503 26.9233 163.585 24.304Z" fill="#999999"></path><path d="M169.561 9.37158H172.357V30.704H169.561V9.37158Z" fill="#999999"></path><path d="M19.9989 0.000133808C11.8021 4.92463 4.91894 11.8134 0 19.9979C0 19.9979 0 20.0001 0.00111037 20.0001C7.37064 14.425 16.3713 10.6775 25.714 9.43385C24.1217 6.08719 22.2041 2.91486 19.9978 -0.000976562L19.9989 0.000133808Z" fill="#999999"></path><path d="M0.000133808 20.0023C4.92463 28.1991 11.8134 35.0834 19.9979 40.0001C19.9979 40.0001 20.0001 40.0001 20.0001 39.999C14.425 32.6295 10.6775 23.6288 9.43385 14.2861C6.08719 15.8784 2.91486 17.796 -0.000976562 20.0023H0.000133808Z" fill="#999999"></path><path d="M19.9977 40C28.1944 35.0755 35.0787 28.1868 39.9955 20.0022C39.9955 20.0022 39.9955 20 39.9944 20C32.6248 25.5752 23.6242 29.3227 14.2815 30.5663C15.8738 33.9129 17.7914 37.0853 19.9977 40.0011V40Z" fill="#999999"></path><path d="M39.9977 19.9978C35.0721 11.8021 28.1833 4.91783 19.9988 0C19.9988 0 19.9966 0 19.9966 0.00111037C25.5718 7.37064 29.3193 16.3713 30.5629 25.714C33.9095 24.1217 37.0819 22.2041 39.9977 19.9978Z" fill="#999999"></path><path d="M175.352 9.60376H174.447V9.25732H176.609V9.60376H175.704V11.5558H175.352V9.60376Z" fill="#999999"></path><path d="M176.877 9.25732H177.43L178.175 11.0928L178.922 9.25732H179.475V11.5558H179.12V9.74034L178.349 11.5558H178L177.232 9.74034V11.5558H176.877V9.25732Z" fill="#999999"></path></g><defs><linearGradient id="paint0_linear_952_1867" x1="0" y1="10.0001" x2="25.7151" y2="10.0001" gradientUnits="userSpaceOnUse"><stop stop-color="#999999"></stop><stop offset="0.5" stop-color="#999999"></stop><stop offset="1" stop-color="#999999"></stop></linearGradient><linearGradient id="paint1_linear_952_1867" x1="10.0012" y1="40.0012" x2="10.0012" y2="14.2872" gradientUnits="userSpaceOnUse"><stop stop-color="#999999"></stop><stop offset="0.5" stop-color="#999999"></stop><stop offset="1" stop-color="#999999"></stop></linearGradient><linearGradient id="paint2_linear_952_1867" x1="39.9966" y1="30" x2="14.2826" y2="30" gradientUnits="userSpaceOnUse"><stop stop-color="#999999"></stop><stop offset="0.5" stop-color="#999999"></stop><stop offset="1" stop-color="#999999"></stop></linearGradient><linearGradient id="paint3_linear_952_1867" x1="29.9966" y1="0" x2="29.9966" y2="25.714" gradientUnits="userSpaceOnUse"><stop stop-color="#999999"></stop><stop offset="0.5" stop-color="#999999"></stop><stop offset="1" stop-color="#999999"></stop></linearGradient><clipPath id="clip0_952_1867"><rect width="179.475" height="40" fill="#999999"></rect></clipPath></defs></svg>