<svg width="412" height="100" viewBox="0 0 412 100" fill="none" xmlns="http://www.w3.org/2000/svg">
<g clip-path="url(#clip0_543_184)">
<path d="M236.319 46.94C246.757 46.4796 258.287 50.04 263.183 60.0824C263.863 61.4768 263.676 61.7188 265.054 62.6752C264.766 60.6156 264.074 49.9963 264.72 48.4052C265.472 48.0311 266.555 47.9681 267.396 47.9671C283.522 47.9484 300.028 48.0522 316.101 48.0124C339.083 47.9553 337.595 60.646 337.576 78.4832C337.546 85.1066 337.552 91.7301 337.597 98.3534C334.114 98.6086 328.886 98.6339 325.412 98.3571C325.176 98.3381 324.343 98.2695 324.176 98.078C323.828 97.6732 324.478 67.0011 323.722 63.2136C323.593 62.5605 323.281 61.9778 322.847 61.4758C321.336 59.7281 318.821 59.1422 316.602 58.9834C315.009 58.8697 308.702 58.5263 307.688 59.4021C307.537 60.1575 307.578 69.2685 307.596 70.6023C307.723 79.7625 307.411 89.2933 307.725 98.4124C304.011 98.5969 297.37 98.4647 293.572 98.3365C293.9 94.7663 293.711 88.3931 293.711 84.6571L293.709 58.9816L290.836 59.0398C286.531 59.0703 282.226 59.05 277.923 58.9788C277.865 62.3229 278.009 66.2325 278.011 69.6689L278.026 98.3565C276.237 98.4812 265.905 98.5693 264.601 98.1396C264.438 97.8371 264.648 89.2188 264.561 88.1221C264.487 87.1915 265.102 84.6309 264.817 83.6456C263.827 84.0852 263.388 86.617 262.686 87.7359C256.826 97.0989 249.208 99.2092 238.791 99.2917C239.175 99.3369 240.262 99.3899 240.451 99.6078C238.133 100.289 238.875 99.3516 237.526 99.3402C231.378 99.3025 225.25 97.3349 220.502 93.3701C218.875 92.0106 217.899 90.5587 216.539 89.0062C216.427 88.8766 216.286 88.9394 216.101 88.9569C215.873 89.5768 216.429 90.5762 216.453 91.5732C216.509 93.8146 216.469 96.1052 216.465 98.3462C213.417 98.5905 209.897 98.3573 206.791 98.4178C196.18 98.6249 184.445 99.0162 176.812 90.1937C171.59 84.1573 170.957 76.3446 171.565 68.6452C173.093 49.3029 190.777 47.3084 206.435 48.0152C207.891 48.0792 215.548 47.6033 216.03 48.2858C217.219 49.9653 216.131 54.6146 215.916 56.6321C216.179 56.7015 216.628 56.6985 216.771 56.4589C217.982 54.4331 220.044 52.7961 222.064 51.5009C224.973 49.5965 228.244 48.3098 231.67 47.721C233.247 47.4555 234.768 47.3573 236.319 46.94ZM206.553 87.9414C209.518 87.9667 212.484 87.9724 215.449 87.9581C215.936 87.2345 214.443 85.1687 214.107 84.2249C211.651 77.3365 211.12 70.1627 213.363 63.1194C213.872 61.5096 214.614 60.2239 215.133 58.741C209.683 58.9225 202.496 58.5281 197.436 58.8466C187.62 59.1905 184.955 66.4643 185.311 75.0142C185.881 88.7023 196.273 87.973 206.553 87.9414ZM239.24 88.8605C242.917 88.6027 245.492 87.6379 247.96 84.8518C256.142 75.6162 253.016 58.3043 238.952 57.8233C235.355 58.0609 232.368 59.5243 229.976 62.2514C227.047 65.6041 225.564 69.9794 225.85 74.4219C226.353 81.9462 231.213 88.7054 239.24 88.8605Z" fill="#999999"/>
<path d="M0 29.8661C1.72192 29.0977 5.99919 29.3653 8.03155 29.3706L19.5363 29.3973C26.0359 29.4114 32.6466 29.2293 39.0927 29.5424C46.837 29.9185 55.1973 32.2728 58.4318 40.0724C60.121 44.1458 61.0174 48.8885 60.4308 53.3118C60.1353 55.2985 59.6185 56.3452 59.4405 58.5144C61.4687 55.6309 63.1849 53.172 66.4141 51.4243C76.7298 45.8416 89.4336 48.8404 100.679 47.8207C100.887 47.802 101.744 48.684 101.915 48.8619C101.266 51.9506 101.572 54.5694 101.55 57.707C99.0156 58.3786 96.133 58.1168 93.4005 58.1543C87.9308 58.2291 82.1811 57.873 76.7718 58.9261C75.5121 59.1714 73.2877 60.7339 72.7089 61.8641C71.8994 63.3219 71.1068 65.7692 71.0849 67.413C71.5615 68.3595 76.19 68.0396 77.3814 68.0356L93.7109 68.0003C94.8246 67.9993 101.134 67.6068 101.592 68.6655C102.263 70.216 100.959 73.6394 101.191 75.3168C101.636 75.2535 105.7 69.7784 111.115 68.8959C119.86 67.4706 127.802 68.08 136.61 67.9716C137.087 67.9567 137.777 67.9404 138.156 67.6414C138.193 65.9945 137.768 64.9136 137.68 63.336C137.702 63.2138 137.811 62.9963 137.866 62.8736C140.779 61.4619 143.689 60.1132 146.575 58.6388C148.458 57.677 150.558 56.1348 152.486 55.5048L152.515 55.7195C151.682 56.239 150.822 56.7951 149.963 57.2631C152.274 62.5838 151.676 68.9981 151.676 74.7378C151.629 82.6341 151.652 90.5307 151.743 98.4267L125.124 98.4132C118.159 98.4152 109.592 99.6005 104.156 94.2871C103.134 93.2885 102.555 91.6786 101.445 90.7639L101.219 90.8635C101.142 92.685 101.936 97.0454 101.306 98.1746C100.51 98.5919 80.2881 98.4704 78.0545 98.2762C75.9239 98.077 73.8196 97.6577 71.7755 97.0247C63.8992 94.5629 59.2908 89.2917 57.1813 81.3798C55.138 73.7152 56.0972 69.9408 57.6555 62.5086C57.2551 62.6504 55.8252 64.4698 55.585 64.9098C54.3019 67.2589 47.8753 68.7102 46.8328 69.6975C46.7719 70.5744 47.9614 71.9271 48.4854 72.8193L58.0137 89.1581C59.6762 92.0003 61.9112 96.0563 63.8232 98.642C59.4602 98.0128 52.0778 98.6118 47.3281 98.337C44.4117 92.7044 40.6655 86.7565 37.5787 81.1512C36.5789 79.3362 32.8972 72.751 31.8507 71.4535L14.6369 71.4478C14.7556 80.4032 14.5452 89.4897 14.709 98.3927C12.3493 98.4017 1.56085 98.5555 0 98.2539V29.8661ZM100.812 88.2814C100.661 86.638 99.8639 85.0424 99.9126 82.8209C99.9408 81.5382 100.518 79.438 100.381 78.7937C98.8561 78.5784 94.4902 78.7017 92.7935 78.7082L78.3788 78.716C76.421 78.7126 73.2406 78.8267 71.4283 78.4241C71.0338 78.7283 70.8185 78.7692 70.8119 79.3124C70.7532 84.1068 73.3105 87.7818 78.4383 88.0434C85.6731 88.4122 93.5574 88.4887 100.812 88.2814ZM14.6748 59.482C19.4674 59.4442 24.2603 59.4446 29.0528 59.4832C32.2631 59.4935 41.1785 59.9024 43.3875 57.4579C45.9404 54.8468 45.9744 52.9345 45.9114 49.4321C45.7527 40.6058 33.5691 41.6551 27.5899 41.6577C23.2899 41.6778 18.9899 41.672 14.69 41.6402C14.5236 46.8249 14.5172 54.2692 14.6748 59.482ZM114.882 86.6484C119.093 89.6806 127.511 88.6754 132.824 88.6643C133.823 88.6804 136.959 88.8539 137.751 88.5587C138.854 87.3734 138.291 80.1601 138.442 77.8569C133.168 77.8643 124.709 77.6102 119.613 77.9784C114.2 78.3058 112.875 82.0299 114.882 86.6484Z" fill="#999999"/>
<path d="M352.256 98.3689C350.266 98.49 340.461 98.591 338.946 98.0856C338.866 97.9524 338.955 85.6463 338.955 84.3978L338.776 55.732C338.771 54.2129 338.524 49.3888 339.001 48.3922C339.319 47.7286 349.345 47.9838 350.514 47.9838L370.146 47.9825L385.922 47.9948C398.105 48.0312 410.509 48.0803 411.308 63.5836C411.642 63.4145 411.568 63.4711 412 63.526V98.122C410.546 98.6232 401.386 98.424 399.326 98.3266C398.574 98.291 398.399 98.0121 398.419 97.3059C398.479 95.2037 398.497 93.0932 398.501 90.9886L398.493 74.9487C398.481 68.4675 399.958 59.0695 391.736 59.0566C390.123 59.054 383.307 58.5262 382.247 59.354C381.973 59.7198 381.774 60.1944 381.788 60.6661C382.188 73.1904 381.728 85.8892 382.007 98.4117C377.374 98.4143 372.558 98.4823 367.939 98.3485C368.277 85.4373 367.823 71.99 368.042 58.9862C362.775 59.0743 357.505 59.0725 352.238 58.9811L352.256 98.3689Z" fill="#999999"/>
<path d="M160.791 51.4989C162.693 50.113 167.398 47.4826 169.847 45.908C169.975 48.3404 169.859 50.9508 170 53.2188C169.881 55.5359 169.82 63.0249 169.989 65.2925C169.716 73.9818 170.02 82.6371 169.955 91.3297C169.943 93.0271 169.946 94.7295 170.009 96.4259C169.999 97.2267 170.003 97.4866 170.169 98.2675C169.443 98.6746 163.696 98.4733 162.392 98.4709C160.611 98.5653 159.061 98.5009 157.288 98.4353C156.258 98.618 154.391 98.5343 153.278 98.5154L153.263 68.7007C153.262 66.8689 153.401 56.8681 153.025 55.5949C153.228 55.1265 153.566 55.0325 154.062 54.7078C154.978 54.4333 157.905 52.9456 158.915 52.4581L160.791 51.4989Z" fill="#999999"/>
<path d="M158.346 96.8987C158.605 96.4198 158.665 96.0802 159.237 95.9975C161.145 95.721 166.078 95.4778 167.765 95.715L168.155 96.0792L168.151 96.4683C167.033 97.2625 163.402 96.388 162.299 97.0627L162.392 98.4707C160.611 98.5651 159.061 98.5007 157.288 98.4351L157.308 97.3655C157.733 96.8657 157.579 97.0057 158.346 96.8987Z" fill="#999999"/>
<path d="M158.346 96.8987C159.153 97.3313 161.035 97.1425 162.111 97.3299L162.299 97.0627L162.392 98.4707C160.611 98.5651 159.061 98.5007 157.288 98.4351L157.308 97.3655C157.733 96.8657 157.579 97.0057 158.346 96.8987Z" fill="#999999"/>
<path d="M160.791 51.4988C162.567 51.4908 164.065 51.5197 165.836 51.6262L166.029 51.9097L165.923 52.2634C165.203 52.5773 159.848 52.5755 158.915 52.458L160.791 51.4988Z" fill="#999999"/>
<path d="M158.937 62.9716C159.879 62.9679 160.949 62.915 161.85 63.1539L162.171 63.2013L161.914 63.7136L162.125 63.9623C162.249 64.7027 162.411 65.5072 162.388 66.252C163.639 66.1561 166.31 65.8832 167.231 66.7261C166.665 67.3046 164.856 66.9949 164.087 66.9058L164.983 67.7289L164.863 68.2498C163.977 68.6754 159.965 68.4532 158.707 68.4102C158.736 67.8007 158.84 67.6394 158.58 67.1498C157.971 66.814 156.638 67.073 155.413 66.8744L155.176 66.673L155.178 66.3307C155.711 66.0066 156.903 65.9675 157.577 65.9027C158.032 65.75 157.946 65.8504 158.204 65.5102C157.675 65.34 157.326 65.2581 156.873 64.9178L156.931 64.6009C157.867 63.8587 158.718 64.2889 159.14 63.5909L158.937 62.9716Z" fill="#999999"/>
<path d="M158.707 68.4102C158.784 68.1506 158.91 67.8844 159.019 67.6341C160.187 67.0422 163.65 67.5315 164.983 67.7289L164.863 68.2498C163.977 68.6754 159.965 68.4533 158.707 68.4102Z" fill="#999999"/>
<path d="M162.388 66.2521C163.639 66.1561 166.31 65.8833 167.231 66.7262C166.665 67.3046 164.856 66.995 164.087 66.9058C163.475 66.6294 162.273 66.9545 161.763 66.6332L162.388 66.2521Z" fill="#999999"/>
<path d="M157.577 65.9028C158.225 65.9598 158.27 65.8656 158.757 66.2169C158.348 66.9849 156.253 66.8767 155.413 66.8745L155.176 66.6731L155.178 66.3308C155.711 66.0067 156.903 65.9676 157.577 65.9028Z" fill="#999999"/>
<path d="M158.411 65.2856C159.624 65.1365 161.58 64.654 162.301 65.7045C161.192 65.8909 159.252 66.0438 158.411 65.2856Z" fill="#999999"/>
<path d="M158.324 62.9997C157.709 63.0389 154.78 63.0329 154.717 62.3977C154.608 61.282 154.488 60.056 154.575 58.9349C154.819 58.8269 156.996 58.9731 157.423 58.9931C158.904 58.9953 167.69 58.7941 168.246 59.212C167.822 59.5661 166.883 59.8462 166.343 59.8293C163.48 59.7401 160.9 59.6741 158.061 60.1522C159.146 60.7409 159.106 60.4967 159.491 61.5484C160.38 61.5415 160.949 61.3858 161.627 61.7989C161.821 62.3691 161.822 62.5713 161.85 63.1538C160.949 62.915 159.879 62.9679 158.937 62.9715L158.324 62.9997Z" fill="#999999"/>
<path d="M157.423 58.9933C158.904 58.9955 167.69 58.7943 168.247 59.2122C167.822 59.5663 166.883 59.8464 166.343 59.8295C163.48 59.7404 160.901 59.6744 158.061 60.1524C157.295 60.1659 155.239 60.3615 154.908 59.586C155.562 59.046 156.537 59.0828 157.423 58.9933Z" fill="#999999"/>
<path d="M159.491 61.5485C160.38 61.5417 160.949 61.386 161.627 61.799C161.821 62.3693 161.822 62.5715 161.85 63.154C160.949 62.9151 159.879 62.9681 158.937 62.9717L158.324 62.9998C157.302 62.7393 156.621 62.7212 155.616 62.3409C155.959 62.0681 158.423 61.8795 159.491 61.5485Z" fill="#999999"/>
<path d="M156.748 71.2047L156.842 70.6022C157.821 70.2839 161.913 70.0876 162.688 70.6298L162.707 71.2093L162.902 71.6821C164.1 72.1111 167.051 71.6322 168.277 71.9312C168.214 72.1165 168.117 72.5427 167.989 72.5837C166.259 73.134 163.436 72.735 161.657 72.867C161.344 72.9276 159.45 73.1743 159.385 73.2171C159.2 73.5831 159.134 73.6298 158.827 73.9004C157.845 74.1012 156.182 74.4105 155.278 73.935L155.085 73.293L155.294 72.2115C155.661 71.7992 156.056 71.7769 156.593 71.6697L156.748 71.2047Z" fill="#999999"/>
<path d="M161.657 72.867C160.889 72.8809 158.577 73.0328 158.226 72.2754C158.636 72.0223 167.073 71.9911 168.277 71.9312C168.214 72.1165 168.117 72.5426 167.989 72.5837C166.26 73.134 163.436 72.735 161.657 72.867Z" fill="#999999"/>
<path d="M156.748 71.2047L156.842 70.6022C157.821 70.2839 161.913 70.0876 162.688 70.6298L162.707 71.2093C161.432 71.3185 158.023 71.2636 156.748 71.2047Z" fill="#999999"/>
<path d="M155.085 73.293C156.301 73.163 158.172 73.0749 159.385 73.2171C159.2 73.5831 159.134 73.6298 158.827 73.9004C157.845 74.1013 156.182 74.4105 155.278 73.9351L155.085 73.293Z" fill="#999999"/>
<path d="M160.923 77.6913L160.975 77.6786C161.992 77.4191 162.087 76.9529 162.449 76.8468C164.328 76.2967 165.714 75.8975 167.558 76.5303C167.923 76.8994 167.892 77.2806 167.928 77.7963L167.706 78.2354C166.915 78.6523 156.888 78.5911 155.532 78.4122L155.328 78.1432L155.472 77.8213C156.226 77.5209 159.93 77.6808 160.923 77.6913Z" fill="#999999"/>
<path d="M160.923 77.6913L160.975 77.6786C161.992 77.4191 162.087 76.9529 162.449 76.8468C164.328 76.2967 165.713 75.8975 167.558 76.5303C167.923 76.8994 167.892 77.2806 167.928 77.7963C166.967 77.5641 162.158 77.68 160.923 77.6913Z" fill="#999999"/>
<path d="M155.363 85.9762L155.503 85.6788C156.762 85.483 165.415 85.3064 166.136 85.8633L166.072 86.24L165.64 86.3583C164.292 86.5804 162.359 86.5164 160.947 86.5112C160.887 86.6114 160.793 86.739 160.778 86.8442L160.474 87.5033C159.64 87.9285 155.619 87.9923 154.981 87.2192L155.136 86.7973L155.363 85.9762Z" fill="#999999"/>
<path d="M155.136 86.7975C156.372 86.7614 159.722 86.6319 160.778 86.8443L160.474 87.5035C159.64 87.9286 155.619 87.9924 154.981 87.2194L155.136 86.7975Z" fill="#999999"/>
<path d="M155.363 85.9763C156.714 86.3749 163.782 86.2488 165.64 86.3584C164.292 86.5805 162.359 86.5166 160.947 86.5113C160.887 86.6115 160.793 86.7391 160.778 86.8443C159.722 86.6319 156.372 86.7614 155.136 86.7974L155.363 85.9763Z" fill="#999999"/>
<path d="M159.743 91.4578C161.282 91.4095 167.489 90.9862 168.452 91.7129L168.37 91.9827C167.671 92.5872 164.143 92.3703 162.986 92.3691C161.229 92.3906 159.424 92.6944 157.669 92.7272C156.693 92.7453 154.92 93.0415 154.922 91.7906C155.453 91.3397 158.795 91.464 159.743 91.4578Z" fill="#999999"/>
<path d="M157.664 74.5328C159.335 74.4996 163.935 74.4014 165.405 74.6024C165.686 75.036 165.548 75.4984 165.469 76.0137C163.778 76.0463 158.881 76.2348 157.578 75.5855C157.347 75.0284 157.402 75.2053 157.664 74.5328Z" fill="#999999"/>
<path d="M154.92 93.8271C156.971 93.7066 159.367 93.6979 161.423 94.281C161.796 94.3868 161.828 94.7396 161.971 95.1394C160.374 95.1844 156.773 95.444 155.343 94.8088C155.051 94.679 155.018 94.2048 154.92 93.8271Z" fill="#999999"/>
<path d="M158.589 81.1798C159.866 81.122 166.547 80.8822 167.22 81.4645L167.147 81.8727L166.722 82.0017C165.266 81.9852 159.349 82.1586 158.375 81.8133L158.284 81.5057L158.589 81.1798Z" fill="#999999"/>
<path d="M162.125 88.3491C163.176 88.1604 167.01 88.1024 168.157 88.4934C168.305 88.5439 168.452 88.998 168.537 89.1964C167.57 89.4376 163.784 89.5405 162.728 89.2209C162.333 89.1016 162.304 88.7739 162.125 88.3491Z" fill="#999999"/>
<path d="M162.17 63.2015C163.721 63.1649 166.535 63.0158 167.965 63.2554L168.127 63.474C167.464 64.1395 166.741 63.9701 165.777 63.9719L162.125 63.9625L161.914 63.7138L162.17 63.2015Z" fill="#999999"/>
<path d="M165.176 55.831C165.911 55.8238 167.826 55.6507 168.186 56.3363C167.625 56.6775 166.753 56.6004 166.071 56.6013C165.32 56.6153 162.962 56.8272 162.622 56.1109C163.274 55.7435 164.393 55.8322 165.176 55.831Z" fill="#999999"/>
<path d="M160.671 8.06055L162.291 8.12906C162.699 9.39208 162.386 10.2869 162.601 11.3565C162.686 11.7799 163.564 12.2679 164.007 13.5512C174.002 13.0613 168.315 20.2453 170.235 23.3348C170.345 24.1551 170.434 24.9785 170.5 25.8036C170.388 25.9579 170.255 26.142 170.1 26.3557C170.025 29.8157 169.693 40.6153 170.053 43.3857C169.579 43.7388 168.143 44.6267 167.582 44.798C167.044 45.1593 166.619 45.506 165.979 45.6108C164.884 46.1386 163.875 46.6889 162.956 47.5018C160.719 49.2875 156.903 50.3988 153.593 52.8925L153.252 52.9304C153.285 50.6779 153.654 37.6485 152.791 36.4853L152.694 34.3261C153.89 32.5119 152.675 18.0644 153.362 15.074C153.922 14.5294 153.932 14.9781 154.865 14.6798L155.12 13.7977C155.814 13.2072 158.031 13.7846 158.373 13.5056C159.572 12.5262 158.297 12.5782 160.404 11.6343C160.678 10.9596 160.433 9.29127 160.671 8.06055Z" fill="#999999"/>
<path d="M161.866 44.8415C160.346 44.6906 158.163 45.1964 157.291 44.0435L157.445 43.7556C158.552 43.4988 164.017 43.5978 165.361 43.6761C165.825 43.9628 165.77 44.1562 165.987 44.7612C166.518 44.7942 167.05 44.8065 167.582 44.7982C167.044 45.1596 166.619 45.5063 165.979 45.6111C164.933 45.3717 162.997 45.497 161.962 45.8467L161.866 44.8415Z" fill="#999999"/>
<path d="M161.866 44.8415C163.2 44.8469 164.643 44.789 165.987 44.7612C166.518 44.7942 167.05 44.8065 167.582 44.7983C167.044 45.1596 166.619 45.5063 165.979 45.6111C164.933 45.3717 162.997 45.497 161.962 45.8467L161.866 44.8415Z" fill="#999999"/>
<path d="M161.962 45.8468C162.997 45.4971 164.933 45.3717 165.979 45.6112C164.884 46.1389 163.875 46.6892 162.956 47.5021C161.448 46.9426 156.939 47.723 155.149 47.1291L155.184 46.9665C157.456 45.6921 160.73 47.4365 161.962 45.8468Z" fill="#999999"/>
<path d="M154.576 28.7088C154.838 28.3157 154.899 28.0424 155.368 28.0344C157.74 27.9927 166.256 27.5786 168.149 28.0197L168.382 28.2758L168.514 28.1746L168.407 28.0983L168.284 28.3402C165.835 28.9525 161.951 28.7289 159.286 28.7645L159.224 29.3678L159.234 30.4495C159.942 30.4871 161.187 30.4895 161.795 30.7466C161.994 31.2744 161.997 31.0726 161.839 31.5861C160.505 31.9887 156.296 32.0253 154.97 31.2654C154.879 31.213 154.928 30.8571 154.932 30.7271L155.337 30.3768L155.504 30.1986L155.473 29.7672C154.8 29.7136 154.785 29.2497 154.576 28.7088Z" fill="#999999"/>
<path d="M155.337 30.377C156.748 30.4572 157.823 30.4888 159.234 30.4496C159.942 30.4872 161.187 30.4896 161.795 30.7468C161.994 31.2745 161.997 31.0727 161.839 31.5862C160.505 31.9888 156.296 32.0254 154.97 31.2655C154.879 31.2132 154.928 30.8572 154.932 30.7273L155.337 30.377Z" fill="#999999"/>
<path d="M155.473 29.7671L155.477 29.416C156.299 29.2395 158.405 29.2065 159.225 29.3677L159.234 30.4494C157.823 30.4886 156.748 30.4571 155.338 30.3768L155.504 30.1985L155.473 29.7671Z" fill="#999999"/>
<path d="M154.576 28.7087C156.174 28.8049 157.69 28.7806 159.286 28.7645L159.224 29.3677C158.405 29.2065 156.298 29.2395 155.477 29.416L155.473 29.7671C154.8 29.7136 154.785 29.2496 154.576 28.7087Z" fill="#999999"/>
<path d="M156.881 39.8707L156.93 39.5452C157.977 39.2329 161.744 38.9494 162.649 39.4027C162.663 39.716 162.705 39.6647 162.58 39.9122L162.532 40.7086C163.907 40.8182 166.859 40.5512 167.893 41.0973L167.959 41.3989C167.542 41.7025 166.632 41.6625 165.835 41.6613C162.391 41.6555 158.866 41.6699 155.42 41.5573C155.288 41.4303 155.18 41.3257 155.094 41.2432L155.208 40.7949L155.596 40.6553C156.033 40.5456 156.332 40.4544 156.756 40.3013L156.881 39.8707Z" fill="#999999"/>
<path d="M156.881 39.8707L156.93 39.5452C157.977 39.2329 161.744 38.9494 162.649 39.4027C162.663 39.716 162.705 39.6647 162.58 39.9122C160.683 40.0711 158.776 40.0573 156.881 39.8707Z" fill="#999999"/>
<path d="M156.881 39.8708C158.776 40.0574 160.683 40.0713 162.581 39.9123L162.532 40.7087C160.212 40.6572 157.918 40.5888 155.596 40.6554C156.033 40.5457 156.333 40.4546 156.756 40.3014L156.881 39.8708Z" fill="#999999"/>
<path d="M154.895 35.8237C155.147 35.4179 155.187 35.1686 155.724 35.1137C157.373 34.9455 166.21 34.9992 167.268 35.3276L167.371 35.7304L167.171 35.9799C166.379 36.0668 166.052 36.0608 165.255 36.0082L165.113 36.3684C165.11 36.7596 165.096 36.8119 164.953 37.1765C163.788 37.7672 160.559 37.4203 159.284 37.1093C158.925 37.0217 158.808 36.4105 158.692 36.0817C158.288 35.7728 156.188 36.3258 154.895 35.8237Z" fill="#999999"/>
<path d="M158.692 36.0818C160.841 36.2244 162.967 36.254 165.113 36.3685C165.11 36.7597 165.096 36.812 164.954 37.1766C163.788 37.7673 160.559 37.4204 159.284 37.1094C158.925 37.0218 158.808 36.4106 158.692 36.0818Z" fill="#999999"/>
<path d="M154.895 35.8238C159.289 36.0345 160.472 35.2144 165.255 36.0083L165.113 36.3685C162.967 36.254 160.841 36.2244 158.692 36.0818C158.288 35.7729 156.188 36.3258 154.895 35.8238Z" fill="#999999"/>
<path d="M154.952 22.9223L154.859 22.4283C155.732 21.8364 164.293 22.1541 165.86 22.0495C166.009 22.0394 166.28 22.2301 166.36 22.3758C165.851 23.1517 161.648 22.9239 160.559 22.9322L160.873 23.6748C160.724 24.1931 160.841 24.0279 160.413 24.3426C159.389 24.4523 155.639 24.8052 154.904 24.2382L154.87 23.703L154.952 22.9223Z" fill="#999999"/>
<path d="M154.952 22.9223C156.821 22.8941 158.69 22.8973 160.559 22.9321L160.873 23.6748C160.724 24.1931 160.841 24.0279 160.413 24.3426C159.389 24.4522 155.639 24.8052 154.904 24.2382L154.87 23.7029L154.952 22.9223Z" fill="#999999"/>
<path d="M154.952 22.9223C156.821 22.8941 158.69 22.8973 160.559 22.9321L160.873 23.6748C159.836 23.3858 155.952 23.4899 154.87 23.7029L154.952 22.9223Z" fill="#999999"/>
<path d="M161.726 32.4987C163.247 32.1933 166.236 32.01 167.763 32.2436L168.077 32.4772L167.982 32.8731C167.392 33.158 166.883 33.0701 166.234 33.0287C164.885 33.2444 163.982 32.9419 162.373 33.3291C162.051 33.6584 162.01 33.7747 161.819 34.1975C161.067 34.6029 157.503 34.7289 156.985 33.8071L157.203 33.5043C158.793 33.0019 160.04 32.5373 161.726 32.4987Z" fill="#999999"/>
<path d="M161.726 32.4987C163.247 32.1933 166.236 32.01 167.763 32.2436L168.077 32.4772L167.982 32.8731C167.392 33.158 166.883 33.0701 166.234 33.0287C164.703 32.7627 162.93 33.2826 161.726 32.4987Z" fill="#999999"/>
<path d="M163.141 18.1262L163.561 18.4983C163.53 19.0181 163.524 19.1332 163.339 19.6167C162.533 19.8366 156.185 19.8525 155.182 19.8051L154.939 19.4873C155.699 18.3379 162.352 18.581 163.141 18.1262Z" fill="#999999"/>
<path d="M157.809 16.3882C159.218 16.3719 162.396 16.0873 163.353 16.9629L163.272 17.3053C162.541 17.5744 161.303 17.4783 160.485 17.4624C158.556 17.4084 157.047 17.4672 155.182 16.9546L155.141 16.72C156.027 16.3427 156.854 16.3965 157.809 16.3882Z" fill="#999999"/>
<path d="M162.09 24.8028C163.444 24.7781 166.967 24.4994 168.269 25.0252C168.364 25.0638 168.44 25.6636 168.472 25.8342C166.834 25.8547 164.188 26.0733 162.576 25.6447C162.295 25.5698 162.218 25.1419 162.09 24.8028Z" fill="#999999"/>
<path d="M163.141 18.1263C163.803 17.4388 166.168 17.4085 166.937 18.1101L166.851 18.3533C165.784 18.722 164.684 18.5852 163.561 18.4984L163.141 18.1263Z" fill="#999999"/>
<path d="M122.34 58.911L122.039 58.3089C121.198 58.0709 117.53 58.3892 116.47 58.4174C114.063 58.4812 111.65 58.3912 109.239 58.3685C107.738 58.3542 105.547 58.6572 104.159 58.4164C103.035 57.5544 103.124 49.2307 103.714 48.0419C104.381 47.7248 131.022 47.9832 134.187 47.8254C135.314 48.0162 136.084 48.0317 137.214 48.0651C138.025 48.6576 138.954 48.5377 139.939 48.8468C144.144 50.1661 146.391 51.9188 149.025 55.2941C145.073 57.1753 140.414 59.6826 136.401 61.0981L136.319 61.0321C132.676 58.1379 130.813 58.6786 126.277 58.459C125.57 58.3828 124.534 58.2208 123.848 58.3842C123.334 58.5065 122.613 59.1242 122.34 58.911Z" fill="#999999"/>
<path d="M212.902 10.8926L213.506 12.6866C211.709 18.0326 188.141 33.7624 182.767 38.0863C180.687 39.7599 176.451 41.9861 174.07 43.5734C172.9 44.3541 171.171 45.5712 169.847 45.9076C167.398 47.4823 162.693 50.1127 160.791 51.4986L158.915 52.4577C157.905 52.9453 154.978 54.433 154.062 54.7074C153.847 54.5682 153.623 54.2591 153.453 54.0523C153.439 53.5298 153.464 53.3998 153.594 52.8925C156.903 50.3988 160.719 49.2875 162.957 47.5018C163.875 46.6889 164.885 46.1386 165.979 45.6108C166.619 45.506 167.045 45.1593 167.582 44.798C168.143 44.6267 169.579 43.7388 170.053 43.3857C173.353 41.8104 178.019 38.6662 181.088 36.5933C190.612 30.1595 200.736 23.7334 208.474 15.1543C209.923 13.5487 211.641 12.6747 212.902 10.8926Z" fill="#999999"/>
<path d="M202.733 7.67511C205.569 6.26992 210.965 5.15903 214.228 5.30841C214.471 6.21048 214.542 6.52279 214.594 7.45149C211.295 7.15881 209.056 7.65328 205.932 8.68257C205.604 8.79056 204.539 9.13738 204.246 9.17249C201.773 10.1354 195.655 12.924 193.565 13.5821C191.64 14.7287 188.885 15.9034 186.812 16.9317C182.836 18.8951 178.911 20.9598 175.041 23.1238C174.018 23.696 171.266 25.1735 170.5 25.8039C170.434 24.9787 170.345 24.1554 170.235 23.335C172.054 22.4435 174.779 20.7771 176.639 19.7449C180.346 17.6599 184.119 15.6961 187.953 13.8565C188.847 13.4223 191.566 12.0817 192.453 11.9404C194.514 10.7602 200.399 8.56209 202.733 7.67511Z" fill="#999999"/>
<path d="M202.733 7.67511C205.57 6.26992 210.965 5.15903 214.228 5.30841C214.471 6.21048 214.542 6.52279 214.594 7.45149C211.295 7.15881 209.056 7.65328 205.932 8.68257C205.604 8.79056 204.54 9.13738 204.246 9.17249C202.888 8.73475 202.047 10.1958 199.853 9.79197L199.877 9.54867C201.367 8.39207 201.359 8.85787 202.739 8.06159L202.733 7.67511Z" fill="#999999"/>
<path d="M202.733 7.67529L202.739 8.06177C201.359 8.85805 201.367 8.39225 199.877 9.54885L199.853 9.79215C202.047 10.196 202.888 8.73493 204.246 9.17268C201.773 10.1356 195.655 12.9242 193.565 13.5823C193.632 12.6231 196.448 12.351 197.284 11.5405L197.262 11.1817C197.143 11.067 196.821 10.6752 196.69 10.6283C195.983 10.3743 193.851 12.1166 192.453 11.9406C194.514 10.7604 200.399 8.56227 202.733 7.67529Z" fill="#999999"/>
<path d="M153.252 52.9306L153.593 52.8928C153.464 53.4001 153.439 53.53 153.453 54.0526C153.623 54.2594 153.847 54.5685 154.062 54.7077C153.566 55.0325 153.228 55.1264 153.025 55.5948L152.515 55.7196L152.486 55.5049C150.558 56.1349 148.458 57.6771 146.575 58.6389C143.689 60.1133 140.779 61.462 137.866 62.8737C137.811 62.9964 137.702 63.2139 137.68 63.3361L137.487 62.8049C136.65 62.9486 134.341 64.0437 133.401 64.3455C130.553 65.2598 121.983 68.3329 119.392 66.9192C120.258 66.5785 120.961 66.2729 121.801 65.8723C122.33 65.8073 122.7 65.6836 123.202 65.5323L123.133 65.2381C125.97 65.2924 133.662 62.5246 136.401 61.0981C140.415 59.6826 145.073 57.1753 149.025 55.294C150.103 54.5936 152.064 53.5878 153.252 52.9306Z" fill="#999999"/>
<path d="M134.187 47.8254C136.628 44.9294 149.061 36.4926 152.694 34.3264L152.791 36.4856C149.709 39.5713 143.768 42.8626 140.191 45.7823C139.269 46.5349 137.875 47.1457 137.214 48.065C136.084 48.0316 135.314 48.0162 134.187 47.8254Z" fill="#999999"/>
<path d="M214.228 5.30859C218.879 6.26097 215.588 10.9874 213.506 12.687L212.902 10.893C213.834 9.46489 214.049 9.0097 214.594 7.45167C214.542 6.52298 214.471 6.21067 214.228 5.30859Z" fill="#999999"/>
<path d="M160.823 0H162.21C162.474 1.89492 162.329 6.0701 162.291 8.12928L160.671 8.06076C160.661 5.99976 160.551 1.88686 160.823 0Z" fill="#999999"/>
<path d="M122.34 58.9109C122.613 59.1242 123.334 58.5065 123.848 58.3841C124.534 58.2207 125.57 58.3827 126.277 58.459C124.459 58.7865 123.379 60.3374 122.252 61.7984L122.21 62.2141C121.175 62.4489 120.621 63.4075 119.97 64.297C119.709 63.7407 120.111 63.001 119.859 61.7819C120.198 61.2684 121.843 59.4706 122.34 58.9109Z" fill="#999999"/>
<path d="M170 53.2188C170.33 51.1736 169.882 49.3947 170.298 47.416L170.39 47.4438C170.48 52.1088 170.663 56.75 170.39 61.4142C170.32 62.6221 170.823 65.7287 170.457 66.7299L170.227 66.7929C170.138 66.2848 170.053 65.8058 169.989 65.2925C169.82 63.0249 169.881 55.5359 170 53.2188Z" fill="#999999"/>
<path d="M119.859 61.782C120.111 63.0011 119.709 63.7407 119.971 64.2971C119.902 65.1025 119.813 64.8403 120.227 65.4617C120.881 65.7943 121.078 65.8023 121.801 65.8723C120.961 66.2729 120.258 66.5786 119.392 66.9192C117.366 65.1556 118.591 63.5949 119.859 61.782Z" fill="#999999"/>
<path d="M170.008 96.4257L170.023 96.3629C170.663 93.5158 169.604 80.3033 170.337 78.8862C170.727 79.6772 170.434 96.5905 170.169 98.2673C170.003 97.4864 169.999 97.2265 170.008 96.4257Z" fill="#999999"/>
<path d="M119.971 64.297C120.621 63.4075 121.175 62.4489 122.21 62.2141C121.738 62.8568 120.865 63.8841 120.759 64.6155C121.271 65.4185 122.231 65.235 123.133 65.2381L123.202 65.5322C122.7 65.6835 122.33 65.8073 121.801 65.8723C121.078 65.8022 120.881 65.7942 120.227 65.4616C119.813 64.8403 119.902 65.1024 119.971 64.297Z" fill="#999999"/>
</g>
<defs>
<clipPath id="clip0_543_184">
<rect width="412" height="100" fill="#999999"/>
</clipPath>
</defs>
</svg>
